# xmcd
#
# Track frame offsets:
#	150
#	16332
#	23893
#	36469
#	46582
#	58976
#	68227
#	79186
#	86842
#	98150
#	109447
#	118703
#	128289
#	136576
#	147297
#	156697
#	168107
#	178509
#	187615
#	199554
#	209532
#	218395
#	240987
#	259938
#	273770
#
# Disc length: 3768 seconds
#
# Revision: 1
# Processed by: cddbd v1.5.2PL0 Copyright (c) Steve Scherf et al.
# Submitted via: audiograbber 1.83.01
#
DISCID=550eb619
DTITLE=Johnny Cash - Hot Hundred [CD 3)
DYEAR=2014
DGENRE=Country
TTITLE0=A Boy Named Sue (Live)
TTITLE1=Hey Good Lookin'
TTITLE2=Next In Line
TTITLE3=Straight A's In Love
TTITLE4=Give My Love To Rose
TTITLE5=You Remembered Me
TTITLE6=I Love You Because
TTITLE7=Come In Stranger
TTITLE8=Mean Eyed Cat
TTITLE9=Seasons Of My Heart
TTITLE10=Feel Better All Over
TTITLE11=I Couldn't Keep From Crying
TTITLE12=Time Changes Everything
TTITLE13=My Shoes Keep Walking Back To You
TTITLE14=I'd Just Be Fool Enough
TTITLE15=Transfusion Blues
TTITLE16=Why Do You Punish Me (For Lovin' You)
TTITLE17=I Will Miss You When You Go
TTITLE18=I'm So Lonesome I Could Cry
TTITLE19=Just One More
TTITLE20=Honky-Tonk Girl
TTITLE21=Loading Coal
TTITLE22=Slow Rider
TTITLE23=Lumberjack
TTITLE24=Sing It Pretty, Sue
EXTD=
EXTT0=
EXTT1=
EXTT2=
EXTT3=
EXTT4=
EXTT5=
EXTT6=
EXTT7=
EXTT8=
EXTT9=
EXTT10=
EXTT11=
EXTT12=
EXTT13=
EXTT14=
EXTT15=
EXTT16=
EXTT17=
EXTT18=
EXTT19=
EXTT20=
EXTT21=
EXTT22=
EXTT23=
EXTT24=
PLAYORDER=
